<?xml version="1.0" encoding="utf-8"?>
<svg version="1.1" xmlns="http://www.w3.org/2000/svg" xmlns:xlink="http://www.w3.org/1999/xlink" height="591" width="591">
  <defs>
    <path id="path-1" opacity="1" fill-rule="evenodd" d="M132,0 L459,0 C531.852783233208,0 591,59.147216766792 591,132 L591,459 C591,531.852783233208 531.852783233208,591 459,591 L132,591 C59.14721676679201,591 2.842170943040401e-14,531.852783233208 0,459 L0,132 C0,59.14721676679201 59.14721676679197,2.842170943040401e-14 132,0Z"/>
    <mask id="mask-2" maskUnits="userSpaceOnUse" maskContentUnits="userSpaceOnUse">
      <rect opacity="1" x="0" y="0" width="591" height="591" fill="Black"/>
      <use xlink:href="#path-1" fill="White"/>
    </mask>
    <path id="path-3" opacity="1" fill-rule="evenodd" d="M183.27551020408168,272.9809289495263 L283.1632653061225,272.9809289495263 L258.70750347308604,229.25950061892857 L208.98825942295977,228.45314247371925 L183.27551020408168,272.9809289495263Z"/>
    <path id="path-4" opacity="1" fill-rule="evenodd" d="M374.6194706673855,232.0312681726682 L431.99999999999943,232.0312681726682 L370.1173469387751,327.0503839558635 L313.8518605922968,327.2430602872907 L374.6194706673855,232.0312681726682Z"/>
    <path id="path-5" opacity="1" fill-rule="evenodd" d="M360.0362954575836,404.1782932481058 L417.27551020408157,403.7813017222097 L390.70555387980284,452.6823529411767 L334.31027312292395,452.6823529411767 L360.0362954575836,404.1782932481058Z"/>
    <path id="path-6" opacity="1" fill-rule="evenodd" d="M208.8543627736512,139 L159,228.73071664607033 L183.48644707964928,272.9723363149696 L209.25754572730145,228.5931272370698 L334.3102731229238,452.6823529411766 L360.0362954575834,404.17829324810583 L313.8518605922968,327.243060287291 L374.69387755102014,232.1792950751003 L338.9960724092024,174.61675106961016 L284.5728302749214,274.7506258608352 L208.8543627736512,139Z"/>
    <path id="path-7" opacity="1" fill-rule="evenodd" d="M284.5728302749216,274.750625860835 L310.15183881828625,227.81123160280964 L261.2755102040816,139 L208.74489795918362,139 L284.5728302749216,274.750625860835Z"/>
    <path id="path-8" opacity="1" fill-rule="evenodd" d="M374.69387755102025,232.1792950751002 L431.99999999999955,232.03126817266826 L391.56020724163585,173.98611794527687 L338.9960724092025,174.61675106961 L374.69387755102025,232.1792950751002Z"/>
    <path id="path-9" opacity="1" fill-rule="evenodd" d="M360.0362954575834,404.17829324810543 L417.2755102040814,403.78130172220955 L370.11734693877526,327.05038395586394 L313.8518605922968,327.2430602872908 L360.0362954575834,404.17829324810543Z"/>
    <ellipse id="ellipse-10" opacity="1" rx="5.352941176470585" ry="5.88823529411765" cx="194.3294117647059" cy="204.8411764705883"/>
    <ellipse id="ellipse-11" opacity="1" rx="5.35294117647059" ry="5.88823529411764" cx="180.4117647058823" cy="227.32352941176475"/>
    <path id="path-12" opacity="1" fill-rule="evenodd" d="M296.302978515625,38.54345703125 C438.5643310546875,38.54345703125 554.0625,154.0416259765625 554.0625,296.302978515625 C554.0625,438.5643310546875 438.5643310546875,554.0625 296.302978515625,554.0625 C154.0416259765625,554.0625 38.54345703125,438.5643310546875 38.54345703125,296.302978515625 C38.54345703125,154.0416259765625 154.0416259765625,38.54345703125 296.302978515625,38.54345703125 L296.302978515625,38.54345703125ZM296.302978515625,138.1141357421875 C383.60986328125,138.1141357421875 454.4918212890625,208.9962158203125 454.4918212890625,296.302978515625 C454.4918212890625,383.60986328125 383.60986328125,454.4918212890625 296.302978515625,454.4918212890625 C208.9962158203125,454.4918212890625 138.1141357421875,383.60986328125 138.1141357421875,296.302978515625 C138.1141357421875,208.9962158203125 208.9962158203125,138.1141357421875 296.302978515625,138.1141357421875 L296.302978515625,138.1141357421875ZM406.3125,294.697021484375 C406.3125,233.0947265625 356.29931640625,183.08154296875 294.697021484375,183.08154296875 C233.0947265625,183.08154296875 183.08154296875,233.0947265625 183.08154296875,294.697021484375 C183.08154296875,356.29931640625 233.0947265625,406.3125 294.697021484375,406.3125 C356.29931640625,406.3125 406.3125,356.29931640625 406.3125,294.697021484375 L406.3125,294.697021484375Z"/>
  </defs>
  <g opacity="1">
    <g opacity="1">
      <use xlink:href="#path-1" fill="rgb(255,255,255)" fill-opacity="1"/>
    </g>
    <g mask="url(#mask-2)">
      <g opacity="1">
        <g opacity="1">
          <g opacity="1">
            <use xlink:href="#path-3" fill="rgb(103,179,206)" fill-opacity="1"/>
          </g>
          <g opacity="1">
            <use xlink:href="#path-4" fill="rgb(103,179,206)" fill-opacity="1"/>
          </g>
          <g opacity="1">
            <use xlink:href="#path-5" fill="rgb(103,179,206)" fill-opacity="1"/>
          </g>
          <g opacity="1">
            <use xlink:href="#path-6" fill="rgb(228,237,241)" fill-opacity="1"/>
          </g>
          <g opacity="1">
            <use xlink:href="#path-7" fill="rgb(186,220,233)" fill-opacity="1"/>
          </g>
          <g opacity="1">
            <use xlink:href="#path-8" fill="rgb(186,220,233)" fill-opacity="1"/>
          </g>
          <g opacity="1">
            <use xlink:href="#path-9" fill="rgb(186,220,233)" fill-opacity="1"/>
          </g>
        </g>
        <g opacity="1">
          <use xlink:href="#ellipse-10" fill="rgb(255,255,255)" fill-opacity="1"/>
        </g>
        <g opacity="1">
          <use xlink:href="#ellipse-11" fill="rgb(255,255,255)" fill-opacity="1"/>
        </g>
      </g>
      <g opacity="0.4000000059604645">
        <use xlink:href="#path-12" fill-opacity="0" stroke="rgb(0,0,0)" stroke-opacity="1" stroke-width="1" stroke-linecap="square" stroke-linejoin="miter"/>
      </g>
    </g>
  </g>
</svg>