<?xml version="1.0" encoding="utf-8"?>
<svg version="1.1" xmlns="http://www.w3.org/2000/svg" xmlns:xlink="http://www.w3.org/1999/xlink" height="591" width="591">
  <defs>
    <path id="path-1" opacity="1" fill-rule="evenodd" d="M132,0 L459,0 C531.852783233208,0 591,59.147216766792 591,132 L591,459 C591,531.852783233208 531.852783233208,591 459,591 L132,591 C59.14721676679201,591 2.842170943040401e-14,531.852783233208 0,459 L0,132 "/>
    <mask id="mask-2" maskUnits="userSpaceOnUse" maskContentUnits="userSpaceOnUse">
      <rect opacity="1" x="0" y="0" width="591" height="591" fill="Black"/>
      <use xlink:href="#path-1" fill="White"/>
    </mask>
    <path id="path-3" opacity="1" fill-rule="evenodd" d="M613.1492204899778,453.1333333333328 C613.1492204899778,498.6655871372544 595.5695893095769,537.9636690980387 560.4097995545658,571.0287581699343 C526.6754066815145,603.0097459607838 489.3780810690423,618.9999999999995 448.51670378619156,618.9999999999995 C406.70506191536754,618.9999999999995 425.60870729852905,598.0605468749998 425.60870729852905,598.0605468749998 C425.60870729852905,598.0605468749998 421.19657906458804,575.907189542483 452.0801781737194,575.907189542483 C480.58811581291764,575.907189542483 507.6702503340757,563.7112330718948 533.3273942093541,539.3189542483655 C560.4099349665926,513.8425741437903 573.9510022271716,485.11432112418265 573.9510022271716,453.1333333333328 C573.9510022271716,416.8159404183003 558.0343091314032,385.64849610457463 526.2004454342984,359.63006535947665 C508.62055055679286,344.994698065359 479.4003527839644,328.19138026143776 438.53897550111355,309.21960784313677 C389.60034922049,286.995531581699 356.8167126948775,268.8371075032677 340.1870824053452,254.74379084967273 C310.72888017817377,229.26741074509764 296,195.93179639215657 296,154.7359477124179 C296,108.66164326797362 310.25375501113587,70.44764632679706 338.7616926503341,40.09281045751607 C367.2696302895323,11.364126509803784 402.1913300668151,-3.000000000000253 443.52783964365256,-3.000000000000253 C494.84212739420934,-3.000000000000253 535.2277665924275,17.868636627450584 564.6859688195991,59.60653594771214 C587.9674512249444,92.67162501960752 599.608017817372,119.50272925490177 599.608017817372,140.1006535947709 C599.608017817372,144.43705871895372 597.9450797327395,149.04442005228702 594.619153674833,153.9228758169931 C590.3429630289534,158.8013315816992 586.3043991091315,161.2405228758167 582.5033407572383,161.2405228758167 C573.9509594654787,161.2405228758167 565.8738316258354,152.02580020914993 558.2717149220491,133.59607843137218 C533.0897033407573,70.17615349019556 494.84212739420934,38.46666666666639 443.52783964365256,38.46666666666639 C412.16910824053457,38.46666666666639 386.2747866369711,49.03649560784289 365.84409799554567,70.17647058823502 C345.4134093541203,91.85849620915009 335.1982182628062,120.04470671895388 335.1982182628062,154.7359477124179 C335.1982182628062,184.5487329411759 347.7890351893096,209.21166713725435 372.97104677060133,228.72549019607808 C385.7996187082406,239.02445236601264 410.5061273942094,252.3044938562087 447.09131403118045,268.56601307189504 C496.029940311804,289.7059880522871 532.6145781737195,311.116667189542 556.8463251670379,332.79869281045706 "/>
    <path id="path-4" opacity="1" fill-rule="evenodd" d="M752.3988289949889,401.02382899498934 C752.3988289949889,403.1722772371768 751.5199315340515,405.22303797936434 749.7621102449889,407.17617274498934 C748.3949159090514,409.3246209871768 746.7347762606139,410.39882899498934 744.7816414949889,410.39882899498934 C739.5081776278014,410.39882899498934 736.8714852449889,407.27386024498935 736.8714852449889,401.02382899498934 L736.8714852449889,195.06679774498934 C736.8714852449889,189.20739344811432 739.5081776278014,186.27773524498934 744.7816414949889,186.27773524498934 C749.859791885614,186.27773524498934 752.3988289949889,189.20739344811432 752.3988289949889,195.06679774498934 "/>
    <path id="path-5" opacity="1" fill-rule="evenodd" d="M729.820125909068,324.43952298954787 C714.6598343544471,322.30888296012995 717.9811295026273,330.15208683165497 724.3808941324726,284.6153953540691 C730.7806587623179,239.0787038764831 731.8161431623237,222.9502189495243 746.6868642817273,200.52636554963556 C763.985458236952,174.76923664435807 788.5673019682961,161.89086536922014 820.4331329384468,161.89086536922014 C846.5327659235224,161.89086536922014 868.8385130130762,171.89054188873897 887.3510433862112,191.89019492107215 C900.7043439832267,206.13237208046084 907.3808941324803,219.01074335559886 907.3808941324803,230.52569510148754 C907.3808941324803,237.7982962041541 903.2839201772566,241.43454221125188 895.0898493563607,241.43454221125188 C892.3584924160622,241.43454221125188 888.1097786847188,236.73772445208397 882.3435806996438,227.3439480278063 C875.0599621921808,214.91992114408419 868.2316722668074,205.82930612633965 861.8585060727773,200.07183025339538 C850.9330783115826,190.37502878317326 837.124758684716,185.52670077370954 820.4331329384468,185.52670077370954 C795.8509204757593,185.52670077370954 777.338667789191,196.4354387950029 764.8958195056088,218.25324210300263 C755.3944264452981,248.5705609148701 755.3944264452978,248.57056091487 750.3286553265035,284.6153953540691 "/>
    <path id="path-6" opacity="1" fill-rule="evenodd" d="M338.9767779390427,269.88888888888727 C338.9767779390427,280.0020740740725 330.84157910014613,288.2098765432083 320.817851959362,288.2098765432083 C310.79412481857787,288.2098765432083 302.65892597968127,280.0020740740725 302.65892597968127,269.88888888888727 C302.65892597968127,259.7757037037021 310.79412481857787,251.5679012345663 320.817851959362,251.5679012345663 "/>
    <path id="path-7" opacity="1" fill-rule="evenodd" d="M266.3410740203191,269.88888888888727 C266.3410740203191,280.0020740740725 258.2058751814225,288.2098765432083 248.18214804063834,288.2098765432083 C238.15842089985418,288.2098765432083 230.02322206095755,280.0020740740725 230.02322206095755,269.88888888888727 C230.02322206095755,259.7757037037021 238.15842089985418,251.5679012345663 248.18214804063834,251.5679012345663 "/>
    <path id="path-8" opacity="1" fill-rule="evenodd" d="M296.302978515625,38.543487548828125 C438.5643310546875,38.543487548828125 554.0625,154.0416259765625 554.0625,296.302978515625 C554.0625,438.5643310546875 438.5643310546875,554.0625305175781 296.302978515625,554.0625305175781 C154.0416259765625,554.0625305175781 38.54345703125,438.5643310546875 38.54345703125,296.302978515625 C38.54345703125,154.0416259765625 154.0416259765625,38.543487548828125 296.302978515625,38.543487548828125 M296.302978515625,138.1141357421875 C383.60986328125,138.1141357421875 454.4918212890625,208.9962158203125 454.4918212890625,296.302978515625 C454.4918212890625,383.60980224609375 383.60986328125,454.4918212890625 296.302978515625,454.4918212890625 C208.9962158203125,454.4918212890625 138.1141357421875,383.60980224609375 138.1141357421875,296.302978515625 C138.1141357421875,208.9962158203125 208.9962158203125,138.1141357421875 296.302978515625,138.1141357421875 M406.3125,294.697021484375 C406.3125,233.09478759765625 356.29931640625,183.08154296875 294.697021484375,183.08154296875 C233.0947265625,183.08154296875 183.08154296875,233.09478759765625 183.08154296875,294.697021484375 C183.08154296875,356.29931640625 233.0947265625,406.3125 294.697021484375,406.3125 C356.29931640625,406.3125 406.3125,356.29931640625 406.3125,294.697021484375 "/>
  </defs>
  <g opacity="1">
    <g opacity="1">
      <use xlink:href="#path-1" fill="rgb(255,255,255)" fill-opacity="1"/>
    </g>
    <g mask="url(#mask-2)">
      <g opacity="1">
        <g transform="translate(454.5746102449889, 307.99999999999966) scale(-1, 1) translate(-454.5746102449889, -307.99999999999966) translate(454.5746102449889, 307.99999999999966) rotate(90.00003218077504) translate(-454.5746102449889, -307.99999999999966)" opacity="1">
          <use xlink:href="#path-3" fill="rgb(103,179,206)" fill-opacity="1"/>
          <use xlink:href="#path-3" fill-opacity="0" stroke="rgb(103,179,206)" stroke-opacity="1" stroke-width="23"/>
        </g>
        <g transform="translate(744.6351571199889, 298.33828211998934) rotate(90.00003218077504) translate(-744.6351571199889, -298.33828211998934)" opacity="1">
          <use xlink:href="#path-4" fill="rgb(103,179,206)" fill-opacity="1"/>
          <use xlink:href="#path-4" fill-opacity="0" stroke="rgb(103,179,206)" stroke-opacity="1" stroke-width="34"/>
        </g>
        <g transform="translate(813.1883218251953, 243.35642756080608) rotate(-8.000002860513337) translate(-813.1883218251953, -243.35642756080608)" opacity="1">
          <use xlink:href="#path-5" fill="rgb(103,179,206)" fill-opacity="1"/>
          <use xlink:href="#path-5" fill-opacity="0" stroke="rgb(103,179,206)" stroke-opacity="1" stroke-width="34"/>
        </g>
        <g opacity="1">
          <g opacity="1">
            <use xlink:href="#path-6" fill="rgb(103,179,206)" fill-opacity="1"/>
          </g>
          <g opacity="1">
            <use xlink:href="#path-7" fill="rgb(103,179,206)" fill-opacity="1"/>
          </g>
        </g>
      </g>
      <g opacity="0.4000000059604645">
        <use xlink:href="#path-8" fill-opacity="0" stroke="rgb(0,0,0)" stroke-opacity="1" stroke-width="1" stroke-linecap="square" stroke-linejoin="miter"/>
      </g>
    </g>
  </g>
</svg>