<?xml version="1.0" encoding="utf-8"?>
<svg version="1.1" xmlns="http://www.w3.org/2000/svg" xmlns:xlink="http://www.w3.org/1999/xlink" height="680" width="590.9999999999999">
  <defs>
    <path id="path-1" opacity="1" fill-rule="evenodd" d="M52.552478134110856,290.44359949302907 L268.7930029154519,290.44359949302907 L215.8503097164608,195.66437144260166 L108.21634182772604,193.91634980988601 L52.552478134110856,290.44359949302907Z"/>
    <path id="path-2" opacity="1" fill-rule="evenodd" d="M466.7806123239013,201.6730038022813 L590.9999999999999,201.6730038022813 L457.0342565597666,407.65525982255997 L335.2287531503573,408.07294320239316 L466.7806123239013,201.6730038022813Z"/>
    <path id="path-3" opacity="1" fill-rule="evenodd" d="M435.21044181476907,574.8529929017935 L559.1239067055392,573.9923954372625 L501.60433092660617,680 L379.51784401336306,680 L435.21044181476907,574.8529929017935Z"/>
    <path id="path-4" opacity="1" fill-rule="evenodd" d="M107.92647765284939,0 L0,194.51807456561014 L53.00912169990014,290.424972396401 L108.79930228877362,194.21980851001888 L379.51784401336295,680 L435.210441814769,574.8529929017932 L335.2287531503573,408.0729432023933 L466.9416909620991,201.99389623601232 L389.66182708365847,77.20992430797232 L271.844478727028,294.27994504580397 L107.92647765284939,0Z"/>
    <path id="path-5" opacity="1" fill-rule="evenodd" d="M271.844478727028,294.279945045804 L327.2188159033227,192.5248166613811 L221.40962099125346,0 L107.68950437317767,0 L271.844478727028,294.279945045804Z"/>
    <path id="path-6" opacity="1" fill-rule="evenodd" d="M466.94169096209924,201.9938962360124 L591,201.67300380228153 L503.45451457804745,75.84283903675532 L389.6618270836584,77.20992430797212 L466.94169096209924,201.9938962360124Z"/>
    <path id="path-7" opacity="1" fill-rule="evenodd" d="M435.2104418147689,574.8529929017935 L559.1239067055394,573.9923954372629 L457.03425655976673,407.6552598225603 L335.2287531503573,408.07294320239276 L435.2104418147689,574.8529929017935Z"/>
    <ellipse id="ellipse-8" opacity="1" rx="12" ry="12.5" cx="77.00000000000011" cy="143.5"/>
    <ellipse id="ellipse-9" opacity="1" rx="12" ry="12.5" cx="45.000000000000114" cy="190.5"/>
  </defs>
  <g opacity="1">
    <g opacity="1">
      <g opacity="1">
        <use xlink:href="#path-1" fill="rgb(103,179,206)" fill-opacity="1"/>
      </g>
      <g opacity="1">
        <use xlink:href="#path-2" fill="rgb(103,179,206)" fill-opacity="1"/>
      </g>
      <g opacity="1">
        <use xlink:href="#path-3" fill="rgb(103,179,206)" fill-opacity="1"/>
      </g>
      <g opacity="1">
        <use xlink:href="#path-4" fill="rgb(228,237,241)" fill-opacity="1"/>
      </g>
      <g opacity="1">
        <use xlink:href="#path-5" fill="rgb(186,220,233)" fill-opacity="1"/>
      </g>
      <g opacity="1">
        <use xlink:href="#path-6" fill="rgb(186,220,233)" fill-opacity="1"/>
      </g>
      <g opacity="1">
        <use xlink:href="#path-7" fill="rgb(186,220,233)" fill-opacity="1"/>
      </g>
    </g>
    <g opacity="1">
      <use xlink:href="#ellipse-8" fill="rgb(255,255,255)" fill-opacity="1"/>
    </g>
    <g opacity="1">
      <use xlink:href="#ellipse-9" fill="rgb(255,255,255)" fill-opacity="1"/>
    </g>
  </g>
</svg>