<?xml version="1.0" encoding="utf-8"?>
<svg version="1.1" xmlns="http://www.w3.org/2000/svg" xmlns:xlink="http://www.w3.org/1999/xlink" height="477.1066442122451" width="934.1848468826672">
  <defs>
    <path id="path-1" opacity="1" fill-rule="evenodd" d="M549.5533221061223,383.68665543945605 C549.5533221061223,429.21890924337765 531.9736909257216,468.51699120416197 496.8139011707104,501.5820802760576 C463.0795082976591,533.563068066907 425.78218268518697,549.5533221061228 384.9208054023362,549.5533221061228 C343.1091635315122,549.5533221061228 362.0128089146737,528.613868981123 362.0128089146737,528.613868981123 C362.0128089146737,528.613868981123 357.6006806807327,506.46051164860626 388.48427978986405,506.46051164860626 C416.9922174290623,506.46051164860626 444.0743519502204,494.264555178018 469.73149582549877,469.8722763544887 C496.81403658273723,444.39589624991356 510.35510384331616,415.6676432303059 510.35510384331616,383.68665543945605 C510.35510384331616,347.3692625244235 494.43841074754795,316.20181821069787 462.6045470504431,290.1833874655999 C445.0246521729375,275.5480201714822 415.8044544001091,258.744702367561 374.9430771172582,239.77292994926 C326.00445083663465,217.54885368782226 293.22081431102214,199.39042960939094 276.5911840214899,185.29711295579597 C247.13298179431843,159.82073285122087 232.40410161614466,126.4851184982798 232.40410161614466,85.28926981854113 C232.40410161614466,39.21496537409685 246.65785662728052,1.0009684329202884 275.16579426647877,-29.353867436360694 C303.67373190567696,-58.082551384072985 338.59543168295977,-72.44667789387702 379.9319412597972,-72.44667789387702 C431.246229010354,-72.44667789387702 471.6318682085722,-51.57804126642618 501.0900704357438,-9.840141946164628 C524.3715528410889,23.22494712573075 536.0121194335165,50.056051361025 536.0121194335165,70.65397570089414 C536.0121194335165,74.99038082507695 534.349181348884,79.59774215841026 531.0232552909777,84.47619792311633 C526.747064645098,89.35465368782243 522.7085007252762,91.79384498193994 518.907442373383,91.79384498193994 C510.35506108162343,91.79384498193994 502.27793324198,82.57912231527317 494.6758165381937,64.14940053749541 C469.493804956902,0.7294755963187924 431.246229010354,-30.980011227210376 379.9319412597972,-30.980011227210376 C348.5732098566792,-30.980011227210376 322.67888825311576,-20.41018228603388 302.2481996116903,0.7297926943582524 C281.81751097026495,22.411818315273322 271.6023198789509,50.59802882507711 271.6023198789509,85.28926981854113 C271.6023198789509,115.10205504729913 284.19313680545423,139.76498924337758 309.375148386746,159.27881230220132 C322.20372032438524,169.57777447213587 346.91022901035404,182.85781596233193 383.4954156473251,199.11933517801828 C432.43404192794867,220.25931015841036 469.0186797898641,241.66998929566523 493.25042678318255,263.3520149165803 "/>
    <path id="path-2" opacity="1" fill-rule="evenodd" d="M688.8029306111335,331.5771511011126 C688.8029306111335,333.7255993433 687.9240331501961,335.77636008548757 686.1662118611335,337.7294948511126 C684.7990175251961,339.8779430933 683.1388778767586,340.9521511011126 681.1857431111335,340.9521511011126 C675.912279243946,340.9521511011126 673.2755868611335,337.8271823511126 673.2755868611335,331.5771511011126 L673.2755868611335,125.62011985111258 C673.2755868611335,119.76071555423755 675.912279243946,116.83105735111258 681.1857431111335,116.83105735111258 C686.2638935017586,116.83105735111258 688.8029306111335,119.76071555423755 688.8029306111335,125.62011985111258 "/>
    <path id="path-3" opacity="1" fill-rule="evenodd" d="M666.2242275252124,254.99284509567113 C651.0639359705915,252.86220506625315 654.3852311187717,260.7054089377782 660.784995748617,215.16871746019234 C667.1847603784623,169.63202598260634 668.2202447784681,153.50354105564753 683.0909658978717,131.0796876557588 C700.3895598530964,105.32255875048132 724.9714035844406,92.44418747534337 756.8372345545911,92.44418747534337 C782.936867539667,92.44418747534337 805.2426146292205,102.4438639948622 823.7551450023557,122.44351702719538 C837.1084455993712,136.68569418658407 843.7849957486249,149.5640654617221 843.7849957486249,161.07901720761078 C843.7849957486249,168.35161831027733 839.688021793401,171.9878643173751 831.4939509725051,171.9878643173751 C828.7625940322066,171.9878643173751 824.5138803008632,167.2910465582072 818.7476823157881,157.89727013392954 C811.4640638083251,145.47324325020742 804.6357738829518,136.38262823246288 798.2626076889218,130.6251523595186 C787.337179927727,120.9283508892965 773.5288603008604,116.08002287983275 756.8372345545911,116.08002287983275 C732.2550220919037,116.08002287983275 713.7427694053355,126.98876090112614 701.2999211217532,148.80656420912587 C691.7985280614425,179.12388302099333 691.7985280614422,179.12388302099322 686.7327569426479,215.16871746019234 "/>
    <path id="path-4" opacity="1" fill-rule="evenodd" d="M275.38087955518733,200.44221099501053 C275.38087955518733,210.55539618019571 267.2456807162908,218.7631986493315 257.22195357550663,218.7631986493315 C247.1982264347225,218.7631986493315 239.06302759582593,210.55539618019571 239.06302759582593,200.44221099501053 C239.06302759582593,190.32902580982534 247.1982264347225,182.12122334068954 257.22195357550663,182.12122334068954 "/>
    <path id="path-5" opacity="1" fill-rule="evenodd" d="M202.74517563646378,200.44221099501053 C202.74517563646378,210.55539618019571 194.60997679756719,218.7631986493315 184.586249656783,218.7631986493315 C174.56252251599884,218.7631986493315 166.4273236771022,210.55539618019571 166.4273236771022,200.44221099501053 C166.4273236771022,190.32902580982534 174.56252251599884,182.12122334068954 184.586249656783,182.12122334068954 "/>
  </defs>
  <g opacity="1">
    <g transform="translate(390.97871186113355, 238.5533221061229) scale(-1, 1) translate(-390.97871186113355, -238.5533221061229) translate(390.97871186113355, 238.5533221061229) rotate(90.00003218077504) translate(-390.97871186113355, -238.5533221061229)" opacity="1">
      <use xlink:href="#path-1" fill="rgb(103,179,206)" fill-opacity="1"/>
      <use xlink:href="#path-1" fill-opacity="0" stroke="rgb(103,179,206)" stroke-opacity="1" stroke-width="23"/>
    </g>
    <g transform="translate(681.0392587361335, 228.89160422611258) rotate(90.00003218077504) translate(-681.0392587361335, -228.89160422611258)" opacity="1">
      <use xlink:href="#path-2" fill="rgb(103,179,206)" fill-opacity="1"/>
      <use xlink:href="#path-2" fill-opacity="0" stroke="rgb(103,179,206)" stroke-opacity="1" stroke-width="34"/>
    </g>
    <g transform="translate(749.5924234413397, 173.90974966692932) rotate(-8.000002860513337) translate(-749.5924234413397, -173.90974966692932)" opacity="1">
      <use xlink:href="#path-3" fill="rgb(103,179,206)" fill-opacity="1"/>
      <use xlink:href="#path-3" fill-opacity="0" stroke="rgb(103,179,206)" stroke-opacity="1" stroke-width="34"/>
    </g>
    <g opacity="1">
      <g opacity="1">
        <use xlink:href="#path-4" fill="rgb(103,179,206)" fill-opacity="1"/>
      </g>
      <g opacity="1">
        <use xlink:href="#path-5" fill="rgb(103,179,206)" fill-opacity="1"/>
      </g>
    </g>
  </g>
</svg>