<?xml version="1.0" encoding="utf-8"?>
<svg version="1.1" xmlns="http://www.w3.org/2000/svg" xmlns:xlink="http://www.w3.org/1999/xlink" height="591" width="591">
  <defs>
    <path id="path-1" opacity="1" fill-rule="evenodd" d="M132,0 L459,0 C531.852783233208,0 591,59.147216766792 591,132 L591,459 C591,531.852783233208 531.852783233208,591 459,591 L132,591 C59.14721676679201,591 2.842170943040401e-14,531.852783233208 0,459 L0,132 "/>
    <mask id="mask-2" maskUnits="userSpaceOnUse" maskContentUnits="userSpaceOnUse">
      <rect opacity="1" x="0" y="0" width="591" height="591" fill="Black"/>
      <use xlink:href="#path-1" fill="White"/>
    </mask>
    <path id="path-3" opacity="1" fill-rule="evenodd" d="M339,371.60000000000446 C339,395.31776564706314 329.8540240449444,415.78814917647543 311.5617977528094,433.0117647058869 C294.0111482022476,449.6706715294153 274.60684786516896,457.9999999999998 253.3483146067419,457.9999999999998 C231.59539685393284,457.9999999999998 241.4302042149689,447.09263213424896 241.4302042149689,447.09263213424896 C241.4302042149689,447.09263213424896 239.13475112359606,435.5529411764756 255.20224719101174,435.5529411764756 C270.0337820224721,435.5529411764756 284.12352876404526,429.2000635294162 297.47191011235986,416.49411764706406 C311.561868202248,403.22346305882814 318.606741573034,388.25890682353344 318.606741573034,371.60000000000446 C318.606741573034,352.6822583529444 310.3259255056187,336.44712658823755 293.764044943821,322.89411764706153 C284.61793179775304,315.270550117649 269.4158366292139,306.5176964705911 248.1573033707868,296.6352941176498 C222.69650191011254,285.0587656470602 205.6404926966295,275.600036705884 196.98876404494405,268.25882352941323 C181.66284471910117,254.98816894117755 174,237.62363670588323 174,216.16470588235353 C174,192.16458588235358 181.4156561797753,172.25890258823569 196.2471910112361,156.44705882352946 C211.07872584269688,141.48227811764696 229.24708348314635,133.99999999999972 250.75280898876457,133.99999999999972 C277.4495716853934,133.99999999999972 298.46059752809,144.87047952941165 313.78651685393316,166.61176470588268 C325.8989369662927,183.83538023529465 331.9550561797761,197.81171105882447 331.9550561797761,208.54117647058922 C331.9550561797761,210.80001129411858 331.08989629213556,213.19998729411822 329.3595505617983,215.74117647058864 C327.13482033707953,218.28236564705907 325.0337177528096,219.5529411764715 323.0561797752814,219.5529411764715 C318.6067193258434,219.5529411764715 314.40451415730377,214.7529891764715 310.4494382022477,205.15294117647142 C297.3482491011239,172.11748188235316 277.4495716853934,155.60000000000005 250.75280898876457,155.60000000000005 C234.43812067415763,155.60000000000005 220.96634528089916,161.1058272941179 210.33707865168577,172.11764705882393 C199.7078120224721,183.41182117647134 194.39325842696647,198.09402729411863 194.39325842696647,216.16470588235353 C194.39325842696647,231.69419529411834 200.9437547191013,244.54112564705946 214.04494382022506,254.70588235294213 C220.71913449438205,260.07061505882484 233.5729385393263,266.98819294117754 252.6067415730342,275.4588235294128 C278.0675430337086,286.4706432941192 297.1010605617985,297.62347294117865 309.70786516853957,308.91764705882605 "/>
    <path id="path-4" opacity="1" fill-rule="evenodd" d="M412,342.1058823529407 C412,343.2274565882352 411.54717433962276,344.29803411764715 410.6415094339623,345.31764705882375 C409.93710339622646,346.43922129411715 409.0817660377359,347 408.07547169811323,347 C405.358476981132,347 404,345.36864376470646 404,342.1058823529407 L404,234.58823529411742 C404,231.52939647058858 405.358476981132,230 408.07547169811323,230 C410.6918369811321,230 412,231.52939647058858 412,234.58823529411742 "/>
    <path id="path-5" opacity="1" fill-rule="evenodd" d="M400.15755773208843,303.14681745832934 C392.27470261268354,302.0389544200103 394.0020828171847,306.11420715503294 397.3271351943653,282.4552301451011 C400.6521875715455,258.79625313516976 401.1896888695076,250.41649167730552 408.9205960386138,238.76664722880943 C417.9137105953755,225.38508138949229 430.6945442891421,218.69529628301655 447.2634805487587,218.69709121382223 C460.83422834234983,218.69856134762495 472.43287301047644,223.89531428947717 482.0597625159589,234.2875059435262 C489.0037380356066,241.68801564412806 492.4759980167164,248.37956146584037 492.4766466281279,254.3623441570449 C492.47705627744205,258.14094375148994 490.34700124843494,260.02998443600075 486.0864176388196,260.0295228823651 C484.6662231022803,260.02936903115307 482.4568001774925,257.58882074422365 479.45808258110463,252.7078048043961 C475.67019733275873,246.25228689398736 472.11925219448153,241.5287236270589 468.805140636852,238.53697329529544 C463.12381629161393,233.49822509785457 455.94377851454806,230.97841869568268 447.2648119023682,230.97747849383202 C434.48306107352147,230.9760938329248 424.8580569541235,236.6428654528428 418.3895107911638,247.97796335843447 C413.4508804867545,263.7292901135952 413.4508804867545,263.7292901135952 410.81891583257834,282.45669172430655 "/>
    <path id="path-6" opacity="1" fill-rule="evenodd" d="M197.98782843701525,273.75925925925833 C197.98782843701525,278.9844049382707 193.72386214904185,283.2251028806575 188.470046544217,283.2251028806575 C183.21623093939218,283.2251028806575 178.95226465141877,278.9844049382707 178.95226465141877,273.75925925925833 C178.95226465141877,268.534113580246 183.21623093939218,264.2934156378592 188.470046544217,264.2934156378592 "/>
    <path id="path-7" opacity="1" fill-rule="evenodd" d="M159.91670086582238,273.75925925925833 C159.91670086582238,278.9844049382707 155.65273457784897,283.2251028806575 150.39891897302414,283.2251028806575 C145.14510336819933,283.2251028806575 140.88113708022593,278.9844049382707 140.88113708022593,273.75925925925833 C140.88113708022593,268.534113580246 145.14510336819933,264.2934156378592 150.39891897302414,264.2934156378592 "/>
    <path id="path-8" opacity="1" fill-rule="evenodd" d="M296.302978515625,38.543487548828125 C438.564208984375,38.543487548828125 554.0625,154.0416259765625 554.0625,296.302978515625 C554.0625,438.5643310546875 438.564208984375,554.0625305175781 296.302978515625,554.0625305175781 C154.04150390625,554.0625305175781 38.54345703125,438.5643310546875 38.54345703125,296.302978515625 C38.54345703125,154.0416259765625 154.04150390625,38.543487548828125 296.302978515625,38.543487548828125 M296.302978515625,138.1141357421875 C383.609619140625,138.1141357421875 454.49169921875,208.9962158203125 454.49169921875,296.302978515625 C454.49169921875,383.60980224609375 383.609619140625,454.4918212890625 296.302978515625,454.4918212890625 C208.99609375,454.4918212890625 138.114013671875,383.60980224609375 138.114013671875,296.302978515625 C138.114013671875,208.9962158203125 208.99609375,138.1141357421875 296.302978515625,138.1141357421875 M406.3125,294.697021484375 C406.3125,233.09478759765625 356.29931640625,183.08154296875 294.697021484375,183.08154296875 C233.0947265625,183.08154296875 183.08154296875,233.09478759765625 183.08154296875,294.697021484375 C183.08154296875,356.29931640625 233.0947265625,406.3125 294.697021484375,406.3125 C356.29931640625,406.3125 406.3125,356.29931640625 406.3125,294.697021484375 "/>
  </defs>
  <g opacity="1">
    <g opacity="1">
      <use xlink:href="#path-1" fill="rgb(255,255,255)" fill-opacity="1"/>
    </g>
    <g mask="url(#mask-2)">
      <g opacity="1">
        <g transform="translate(256.5, 296) scale(-1, 1) translate(-256.5, -296) translate(256.5, 296) rotate(90.00003218077504) translate(-256.5, -296)" opacity="1">
          <use xlink:href="#path-3" fill="rgb(103,179,206)" fill-opacity="1"/>
          <use xlink:href="#path-3" fill-opacity="0" stroke="rgb(103,179,206)" stroke-opacity="1" stroke-width="23"/>
        </g>
        <g transform="translate(408, 288.5) rotate(90.00003218077504) translate(-408, -288.5)" opacity="1">
          <use xlink:href="#path-4" fill="rgb(103,179,206)" fill-opacity="1"/>
          <use xlink:href="#path-4" fill-opacity="0" stroke="rgb(103,179,206)" stroke-opacity="1" stroke-width="34"/>
        </g>
        <g transform="translate(443.50286395407596, 261.02144363839693) rotate(-8.000002860513337) translate(-443.50286395407596, -261.02144363839693)" opacity="1">
          <use xlink:href="#path-5" fill="rgb(103,179,206)" fill-opacity="1"/>
          <use xlink:href="#path-5" fill-opacity="0" stroke="rgb(103,179,206)" stroke-opacity="1" stroke-width="34"/>
        </g>
        <g opacity="1">
          <g opacity="1">
            <use xlink:href="#path-6" fill="rgb(103,179,206)" fill-opacity="1"/>
          </g>
          <g opacity="1">
            <use xlink:href="#path-7" fill="rgb(103,179,206)" fill-opacity="1"/>
          </g>
        </g>
      </g>
      <g opacity="0.4000000059604645">
        <use xlink:href="#path-8" fill-opacity="0" stroke="rgb(0,0,0)" stroke-opacity="1" stroke-width="1" stroke-linecap="square" stroke-linejoin="miter"/>
      </g>
    </g>
  </g>
</svg>